<?xml version="1.0" encoding="UTF-8" standalone="no"?>
<!-- Generator: Adobe Illustrator 22.1.0, SVG Export Plug-In . SVG Version: 6.00 Build 0)  -->

<svg
   version="1.1"
   x="0px"
   y="0px"
   viewBox="0 0 619.59406 619.59403"
   xml:space="preserve"
   id="svg10"
   sodipodi:docname="q-logo.svg"
   width="619.59406"
   height="619.59406"
   inkscape:version="1.4.4 (dcaf3e7d9e, 2026-05-05)"
   xmlns:inkscape="http://www.inkscape.org/namespaces/inkscape"
   xmlns:sodipodi="http://sodipodi.sourceforge.net/DTD/sodipodi-0.dtd"
   xmlns="http://www.w3.org/2000/svg"
   xmlns:svg="http://www.w3.org/2000/svg"><defs
   id="defs10" /><sodipodi:namedview
   id="namedview10"
   pagecolor="#ffffff"
   bordercolor="#000000"
   borderopacity="0.25"
   inkscape:showpageshadow="2"
   inkscape:pageopacity="0.0"
   inkscape:pagecheckerboard="0"
   inkscape:deskcolor="#d1d1d1"
   showguides="true"
   inkscape:zoom="0.50109168"
   inkscape:cx="-351.23313"
   inkscape:cy="383.16342"
   inkscape:window-width="1745"
   inkscape:window-height="911"
   inkscape:window-x="0"
   inkscape:window-y="0"
   inkscape:window-maximized="1"
   inkscape:current-layer="g10"><sodipodi:guide
     position="309.62815,176.18243"
     orientation="0,-1"
     id="guide11"
     inkscape:locked="false" /><sodipodi:guide
     position="449.41916,191.13351"
     orientation="1,0"
     id="guide12"
     inkscape:locked="false" /><sodipodi:guide
     position="200.61915,191.13351"
     orientation="1,0"
     id="guide13"
     inkscape:locked="false" /><sodipodi:guide
     position="309.62815,456.18228"
     orientation="0,-1"
     id="guide14"
     inkscape:locked="false" /></sodipodi:namedview>
<style
   type="text/css"
   id="style1">
	.st0{fill:#75AADB;}
	.st1{fill:#4D4D4D;}
	.st2{fill:#FFFFFF;}
	.st3{fill:url(#SVGID_1_);}
	.st4{fill:url(#SVGID_2_);}
	.st5{fill:url(#SVGID_3_);}
	.st6{fill:url(#SVGID_4_);}
	.st7{fill:url(#SVGID_5_);}
	.st8{fill:url(#SVGID_6_);}
	.st9{fill:url(#SVGID_7_);}
	.st10{fill:url(#SVGID_8_);}
	.st11{fill:url(#SVGID_9_);}
	.st12{fill:url(#SVGID_10_);}
	.st13{opacity:0.18;fill:url(#SVGID_11_);}
	.st14{opacity:0.3;}
</style>
<g
   id="Gray_Logo"
   transform="translate(-8.8808475,-3.1334903)">
</g>
<g
   id="Black_Letters"
   transform="translate(-8.8808475,-3.1334903)">
</g>
<g
   id="Blue_Gradient_Letters"
   transform="translate(-8.8808475,-3.1334903)">
	<g
   id="g10"><circle
   transform="matrix(0.7071,-0.7071,0.7071,0.7071,-127.9265,317.0317)"
   class="st0"
   cx="318.70001"
   cy="312.89999"
   id="ellipse1"
   style="fill:#001b69;fill-opacity:1"
   r="309.79999" />
		
			
		
		<g
   id="g7">
			
		</g>
		
	<g
   id="g4"
   transform="translate(0,39.589655)"><path
     style="font-weight:bold;font-size:399.999px;line-height:0.9;font-family:'Hack Nerd Font';-inkscape-font-specification:'Hack Nerd Font Bold';fill:#ffffff;stroke-width:3.93699"
     d="m 211.25627,127.54045 h 83.20291 q 56.24986,0 80.85917,19.92182 12.30466,9.96091 18.35933,26.36712 6.05467,16.2109 6.05467,37.49991 0,16.40621 -3.71092,28.12493 -3.51562,11.71872 -10.93748,20.70307 -7.03123,8.59373 -17.38276,14.06247 -10.15623,5.27342 -24.80463,7.22654 9.17966,2.14843 15.03903,8.00779 2.92968,2.92968 6.6406,8.98435 3.90624,6.05468 8.78904,15.82028 l 52.73425,104.88255 h -63.28109 l -35.15617,-73.63263 -4.10155,-8.59373 q -8.2031,-16.79683 -16.79683,-24.80462 -8.59373,-8.20311 -19.5312,-8.20311 h -18.35933 v 115.23409 h -57.61704 z m 84.76541,127.92936 q 23.63275,0 33.98429,-9.37497 4.68749,-4.29687 7.42185,-11.52341 2.73437,-7.22655 2.73437,-18.94527 0,-21.48432 -10.15622,-30.46867 -10.35154,-9.17966 -33.98429,-9.17966 h -27.14837 v 79.49198 z"
     id="text1"
     aria-label="R" /><g
     id="g5"
     transform="rotate(-90,274.97755,309.29188)"><path
       style="font-weight:bold;font-size:85.3333px;line-height:0.9;font-family:'Hack Nerd Font';-inkscape-font-specification:'Hack Nerd Font Bold';fill:#ffffff;stroke-width:3.93699"
       d="m 232.91665,524.92683 c -7.99999,0 -14.18055,-2.79166 -18.54166,-8.37499 -2.08333,-2.66667 -3.70833,-5.97222 -4.87499,-9.91667 -1.13889,-3.94444 -1.70834,-8.62499 -1.70834,-14.04166 0,-10.47221 2.22222,-18.44443 6.66667,-23.91665 4.44444,-5.52778 10.76388,-8.29167 18.95832,-8.29167 2.63889,0 5.16666,0.34722 7.58333,1.04167 2.44445,0.72222 4.70834,1.75 6.79167,3.08333 v 13.62499 c -1.72223,-2.22222 -3.69445,-3.90277 -5.91667,-5.04166 -2.19444,-1.11111 -4.63888,-1.66667 -7.33333,-1.66667 -4.69444,0 -8.19444,1.75 -10.49999,5.25 -2.30556,3.55555 -3.45834,8.86111 -3.45834,15.91666 0,6.91667 1.11111,12.22222 3.33334,15.91666 1.05555,1.72222 2.375,3.05555 3.95833,4 1.61111,0.91667 3.54166,1.375 5.79166,1.375 0.55555,0 1.125,-0.0278 1.70833,-0.0833 0.58333,-0.0555 1.11111,-0.15276 1.58334,-0.29167 0.61111,-0.13889 1.06944,-0.29166 1.375,-0.45833 0.30555,-0.16667 0.61111,-0.36111 0.91666,-0.58334 v -11.87499 h -8.41666 v -10.33333 h 19.16666 v 28.49999 c -2.36111,2.02777 -4.95834,3.55555 -7.79167,4.58333 -1.44444,0.52778 -2.91666,0.91667 -4.41666,1.16667 -1.5,0.27777 -3.125,0.41666 -4.875,0.41666 z m 47.04165,0 c -7.38889,0 -12.77777,-1.91667 -16.16666,-5.75 -3.38889,-3.88889 -5.08333,-10.02777 -5.08333,-18.41665 v -39.24999 h 12.29166 v 42.33332 c 0,3.13889 0.79167,5.58333 2.375,7.33333 1.58333,1.75 3.77778,2.625 6.58333,2.625 2.80555,0 5,-0.875 6.58333,-2.625 1.58333,-1.75 2.375,-4.19444 2.375,-7.33333 v -42.33332 h 12.29166 v 39.24999 c 0,8.49999 -1.68056,14.63888 -5.04167,18.41665 -3.36111,3.83333 -8.76388,5.75 -16.20832,5.75 z m 32.87498,-12.04166 h 12.375 v -40.54165 h -12.375 v -10.83333 h 37.04165 v 10.83333 h -12.37499 v 40.54165 h 12.37499 v 10.83333 h -37.04165 z"
       id="text2"
       aria-label="GUI 2"
       sodipodi:nodetypes="sccscsccccscsccsscsccccccccssscsccsssssccscsccccccccccccc" /><path
       d="m 374.5655,515.32268 q 0,-1.41666 1.04166,-2.58333 l 5.625,-6 q 4.625,-4.99999 7.33333,-7.87499 2.70833,-2.875 4.25,-4.58334 1.54167,-1.70833 2.83333,-3.12499 1.54167,-1.79167 2.66667,-3.25 1.125,-1.5 1.83333,-3.04167 1.375,-2.79166 1.375,-5.625 0,-3.99999 -2.54167,-6.29166 -2.54166,-2.29167 -7.12499,-2.29167 -3.45834,0 -7.375,1.29167 -2.04167,0.66667 -4.20833,1.625 -2.125,0.91667 -4.375,2.20833 V 464.3227 q 2.5,-0.91666 4.75,-1.54166 2.25,-0.625 4,-0.95833 4.29166,-0.83334 8.33333,-0.83334 4.54166,0 8.45833,1.125 3.95833,1.08333 6.91666,3.45833 2.66667,2.16667 4.125,5.29167 1.5,3.125 1.5,7.45833 0,3.41666 -1.25,6.70833 -1.54167,3.70833 -4.20833,7.125 -1.45834,1.83333 -4.25,4.74999 -2.79167,2.91667 -7.875,8 -3.04166,3.08333 -4.79166,4.54167 -1.75,1.41666 -2.83334,2.16666 -1.08333,0.75 -2.16666,1.875 h 27.45832 v 10.83333 H 374.5655 Z"
       id="text4"
       style="font-weight:bold;font-size:85.3333px;line-height:0.9;font-family:'Hack Nerd Font';-inkscape-font-specification:'Hack Nerd Font Bold';fill:#ffffff;stroke-width:1.88976"
       aria-label="2" /></g></g></g>
</g>
<g
   id="White_Letters"
   transform="translate(-8.8808475,-3.1334903)">
</g>
<g
   id="R_Ball"
   transform="translate(-8.8808475,-3.1334903)">
</g>
</svg>
